
<svg xmlns="http://www.w3.org/2000/svg" xmlns:xlink="http://www.w3.org/1999/xlink" preserveAspectRatio="xMidYMid meet" version="1.0" viewBox="0.0 0.0 121.9 122.0" zoomAndPan="magnify" style="fill: rgb(44, 48, 59);" original_string_length="2705" width="143.79389750493726px" height="143.79389750493726px"><g id="__id3_see2akj6pv"><path d="M108.821,116.586H93.534H28.358H13.072c-1.885,0-3.569,1.265-4.096,3.076L8.297,122h105.299l-0.679-2.338 C112.39,117.851,110.706,116.586,108.821,116.586z" style="fill: inherit;"/><path d="M57.736 18.614H64.157V21.976H57.736z" style="fill: inherit;"/><path d="M64.712,16.614c1.595-1.754,2.547-4.468,2.547-7.373C67.259,4.146,64.427,0,60.946,0s-6.313,4.146-6.313,9.241 c0,2.904,0.951,5.618,2.547,7.373H64.712z" style="fill: inherit;"/><path d="M57.736 23.976H64.157V101.33H57.736z" style="fill: inherit;"/><path d="M34.413,109.201c-1.855,0-3.514,1.244-4.033,3.024l-0.688,2.361h62.509l-0.688-2.361c-0.519-1.781-2.178-3.024-4.033-3.024 H77.401h-32.91H34.413z" style="fill: inherit;"/><path d="M56.736 103.33L45.491 103.33 45.491 107.201 76.401 107.201 76.401 103.33 65.157 103.33z" style="fill: inherit;"/><path d="M42.652,74.772h-4.873L27.156,33.185c0.876,0.155,1.753,0.245,2.615,0.245c4.062,0,7.19-1.211,10.216-2.383 c2.404-0.931,4.675-1.811,7.094-1.89c3.563-0.119,6.797,1.46,8.654,2.6v-8.094c-1.483-0.503-5.945-1.832-9.937-1.149 c-2.081,0.356-4.097,1.438-6.232,2.585c-2.979,1.599-6.058,3.252-9.796,3.252c-4.316,0-6.708-1.508-7.883-2.607 c-0.406,0.458-0.879,0.862-1.425,1.175c-0.479,0.274-1.09,0.108-1.365-0.371s-0.108-1.09,0.371-1.365 c1.153-0.661,1.87-1.896,1.87-3.222c0-2.046-1.664-3.71-3.71-3.71c-2.045,0-3.709,1.664-3.709,3.71c0,1.965,1.143,4.03,2.947,5.859 L4.873,74.772H0c0.783,7.28,10.049,13.045,21.326,13.045S41.87,82.052,42.652,74.772z M35.703,74.772H22.326V31.614 c0.847,0.401,1.721,0.743,2.614,1.021L35.703,74.772z M20.326,30.542v44.23H6.949l11.613-45.461 C19.12,29.744,19.704,30.16,20.326,30.542z" style="fill: inherit;"/><path d="M117.02,74.772l-11.994-46.951c1.804-1.829,2.947-3.893,2.947-5.859c0-2.046-1.664-3.71-3.709-3.71 c-2.046,0-3.71,1.664-3.71,3.71c0,1.327,0.716,2.562,1.87,3.222c0.479,0.274,0.645,0.886,0.371,1.365s-0.886,0.645-1.365,0.371 c-0.546-0.313-1.019-0.717-1.425-1.175c-1.175,1.099-3.568,2.607-7.883,2.607c-3.738,0-6.817-1.653-9.796-3.252 c-2.135-1.146-4.151-2.229-6.232-2.585c-3.992-0.684-8.453,0.646-9.937,1.149v8.097c1.857-1.137,5.091-2.712,8.654-2.604 c2.419,0.08,4.69,0.959,7.094,1.89c3.025,1.171,6.154,2.383,10.216,2.383c0.863,0,1.739-0.09,2.615-0.245L84.113,74.772H79.24 c0.783,7.28,10.049,13.045,21.326,13.045s20.543-5.765,21.326-13.045H117.02z M103.331,29.311l11.613,45.461h-13.377v-44.23 C102.188,30.16,102.773,29.744,103.331,29.311z M99.566,31.614v43.158H86.189l10.763-42.136 C97.845,32.357,98.72,32.015,99.566,31.614z" style="fill: inherit;"/></g></svg>